<svg width="35" height="37" viewBox="0 0 35 37" fill="none" xmlns="http://www.w3.org/2000/svg">
<g filter="url(#filter0_d_112_586)">
<path d="M17.5 0L30.9234 7.25V21.75L17.5 29L4.07661 21.75V7.25L17.5 0Z" fill="#C4C4C4"/>
<path d="M17.5 0L30.9234 7.25V21.75L17.5 29L4.07661 21.75V7.25L17.5 0Z" fill="url(#paint0_linear_112_586)" fill-opacity="0.52"/>
<path d="M4.57661 7.54822L17.5 0.568267L30.4234 7.54822V21.4518L17.5 28.4317L4.57661 21.4518V7.54822Z" stroke="#2D3AB4"/>
</g>
<path d="M17.43 23.32C16.45 23.32 15.5567 23.1467 14.75 22.8C13.95 22.4533 13.2833 21.97 12.75 21.35C12.2233 20.7233 11.87 19.99 11.69 19.15L14.15 18.06C14.1767 18.6467 14.33 19.1633 14.61 19.61C14.89 20.05 15.2733 20.3967 15.76 20.65C16.2467 20.8967 16.8067 21.02 17.44 21.02C18.3333 21.02 19.0467 20.7733 19.58 20.28C20.12 19.78 20.39 19.1233 20.39 18.31C20.39 17.7367 20.2567 17.22 19.99 16.76C19.73 16.3 19.38 15.9367 18.94 15.67C18.5 15.4033 18.01 15.27 17.47 15.27C17.1967 15.27 16.9667 15.3033 16.78 15.37V13.58H17.46C17.9667 13.58 18.4233 13.4567 18.83 13.21C19.2433 12.9567 19.57 12.6233 19.81 12.21C20.05 11.7967 20.17 11.35 20.17 10.87C20.17 10.3967 20.05 9.97 19.81 9.59C19.5767 9.20333 19.2567 8.9 18.85 8.68C18.45 8.45333 18.0067 8.34 17.52 8.34C17.0267 8.34 16.57 8.45667 16.15 8.69C15.73 8.91667 15.3867 9.23 15.12 9.63C14.8533 10.0233 14.6967 10.47 14.65 10.97L12.54 10.05C12.6867 9.29 12.9933 8.62 13.46 8.04C13.9333 7.46 14.5233 7.01 15.23 6.69C15.9433 6.36333 16.72 6.2 17.56 6.2C18.52 6.2 19.3767 6.40333 20.13 6.81C20.89 7.21667 21.4867 7.76667 21.92 8.46C22.36 9.15333 22.58 9.94 22.58 10.82C22.58 11.3267 22.4967 11.8033 22.33 12.25C22.17 12.69 21.9367 13.0867 21.63 13.44C21.33 13.7933 20.9733 14.0833 20.56 14.31C21.0533 14.53 21.4833 14.8333 21.85 15.22C22.2233 15.6 22.5133 16.05 22.72 16.57C22.9333 17.0833 23.04 17.6567 23.04 18.29C23.04 19.25 22.8067 20.11 22.34 20.87C21.8733 21.63 21.22 22.23 20.38 22.67C19.54 23.1033 18.5567 23.32 17.43 23.32Z" fill="white"/>
<defs>
<filter id="filter0_d_112_586" x="0.0766602" y="0" width="34.8467" height="37" filterUnits="userSpaceOnUse" color-interpolation-filters="sRGB">
<feFlood flood-opacity="0" result="BackgroundImageFix"/>
<feColorMatrix in="SourceAlpha" type="matrix" values="0 0 0 0 0 0 0 0 0 0 0 0 0 0 0 0 0 0 127 0" result="hardAlpha"/>
<feOffset dy="4"/>
<feGaussianBlur stdDeviation="2"/>
<feComposite in2="hardAlpha" operator="out"/>
<feColorMatrix type="matrix" values="0 0 0 0 0 0 0 0 0 0 0 0 0 0 0 0 0 0 0.25 0"/>
<feBlend mode="normal" in2="BackgroundImageFix" result="effect1_dropShadow_112_586"/>
<feBlend mode="normal" in="SourceGraphic" in2="effect1_dropShadow_112_586" result="shape"/>
</filter>
<linearGradient id="paint0_linear_112_586" x1="17.5" y1="0" x2="17.5" y2="29" gradientUnits="userSpaceOnUse">
<stop stop-color="#1B18F9"/>
<stop offset="1" stop-color="#DC03FF" stop-opacity="0.71"/>
</linearGradient>
</defs>
</svg>
